<svg width="467" height="128" viewBox="0 0 467 128" fill="none" xmlns="http://www.w3.org/2000/svg">
<path d="M105.561 91.1006C112.927 99.9812 124.056 105.649 136.498 105.649C148.94 105.649 160.065 99.9812 167.427 91.1006C158.311 93.054 147.74 94.1641 136.498 94.1641C125.24 94.1641 114.685 93.054 105.561 91.1006Z" fill="white"/>
<path d="M177.006 48.4036C177.697 50.0236 178.293 51.6867 178.783 53.397C183.008 55.0405 185.475 56.9429 185.475 58.9827C185.475 61.3519 182.208 63.5368 176.641 65.3333C176.555 43.2375 158.609 25.3507 136.498 25.3507C114.379 25.3507 96.4409 43.2376 96.3546 65.3372C90.7846 63.5368 87.5171 61.348 87.5171 58.9827C87.5171 56.9469 89.9883 55.0366 94.209 53.397C94.7032 51.6867 95.3034 50.0236 95.9898 48.3996C82.5433 52.5222 74 58.6532 74 65.502C74 66.3924 74.1412 67.2671 74.4197 68.1261C78.0324 79.3054 104.451 87.9743 136.498 87.9743C168.537 87.9743 194.964 79.3054 198.584 68.1261C198.855 67.2593 199 66.3924 199 65.502C198.992 58.6532 190.453 52.5262 177.006 48.4036Z" fill="white"/>
<path d="M71.5 91.48V106H4.18V94.45L46.42 43.52H5.06V29H69.85V40.55L27.72 91.48H71.5Z" fill="white"/>
<path d="M283.75 29V106H265.93V74.43H230.95V106H213.13V29H230.95V59.36H265.93V29H283.75ZM361.478 89.5H325.728L318.908 106H300.648L334.968 29H352.568L386.998 106H368.298L361.478 89.5ZM355.868 75.97L343.658 46.49L331.448 75.97H355.868ZM403.787 29H421.607V91.48H460.217V106H403.787V29Z" fill="white"/>
</svg>
