<svg width="40" height="40" viewBox="0 0 40 40" fill="none" xmlns="http://www.w3.org/2000/svg">
<path d="M24.9481 2H14.8137C14.475 2 14.2037 2.28118 14.1963 2.63068C13.9916 12.4549 9.01228 21.7792 0.441834 28.3837C0.169737 28.5933 0.107747 28.9872 0.306675 29.2709L6.23617 37.734C6.4379 38.022 6.83093 38.087 7.1076 37.8754C12.4664 33.7728 16.7768 28.8236 19.8809 23.338C22.985 28.8236 27.2956 33.7728 32.6545 37.8754C32.9309 38.087 33.324 38.022 33.526 37.734L39.4555 29.2709C39.6541 28.9872 39.5921 28.5933 39.3203 28.3837C30.7496 21.7792 25.7703 12.4549 25.5658 2.63068C25.5584 2.28118 25.2868 2 24.9481 2Z" fill="#FF875B"/>
</svg>
